<svg xmlns="http://www.w3.org/2000/svg" viewBox="0 0 19 19"><path d="M19 4.5c0-1.2-0.5-2.4-1.3-3.2s-2-1.3-3.2-1.3c-1.2 0-2.3 0.5-3.2 1.3C11.3 1.3 3.4 9.3 3.4 9.3c-0.4 0.4-0.7 0.9-1 1.5 -0.2 0.5-2 5.9-2.3 6.9 -0.1 0.4 0 0.8 0.2 1C0.5 18.9 0.7 19 1 19c0.1 0 0.2 0 0.3-0.1 1.1-0.4 6.5-2.1 6.9-2.3 0.6-0.2 1.1-0.6 1.5-1l2.2-2.2c0 0 0.1 0 0.1 0 0.6 0 1.3-0.2 1.8-0.7l4.5-4.5c0.7-0.7 0.9-1.7 0.6-2.6C19 5.3 19 4.9 19 4.5zM7.2 14.9c-0.4 0.1-1.1 0.4-2 0.7l-1.7-1.7c0.3-0.9 0.6-1.6 0.7-2L7.2 14.9zM3.1 15l1 1c-0.5 0.2-1 0.3-1.5 0.5C2.7 16 2.9 15.5 3.1 15zM10.8 11.9l-2.4 2.4c-0.1 0.1-0.2 0.1-0.2 0.2l-3.5-3.5c0.1-0.1 0.1-0.2 0.2-0.2L11.9 3.6l2.7 2.7 -3.7 3.7C10.4 10.5 10.4 11.3 10.8 11.9zM16.9 6.9l-4.5 4.5c-0.1 0.1-0.2 0.1-0.4 0.1s-0.3 0-0.4-0.1c-0.2-0.2-0.2-0.5 0-0.7l4.5-4.5c0.2-0.2 0.5-0.2 0.7 0C17 6.4 17.1 6.7 16.9 6.9zM17 5.1c-0.5-0.2-1.1-0.1-1.5 0.4l-0.1 0.1 -2.7-2.7 0.1-0.1c1-1 2.7-1 3.6 0 0.5 0.5 0.7 1.1 0.7 1.8C17 4.7 17 4.9 17 5.1z" fill="#030104"/></svg>

