<svg xmlns="http://www.w3.org/2000/svg" viewBox="0 0 20.1 20.1"><path d="M18.5 2.7l-1.8-1.8c-0.6-0.6-1.3-0.9-2.1-0.9s-1.6 0.3-2.1 0.9L10.9 2.5c-1.2 1.2-1.2 3.1 0 4.2l1.4 1.4 -4.2 4.2 -1.4-1.4c-0.6-0.6-1.3-0.9-2.1-0.9s-1.6 0.3-2.1 0.9L0.9 12.5c-1.2 1.2-1.2 3.1 0 4.2l1.8 1.8c0.5 0.5 1.8 1.5 4.1 1.5 2.8 0 5.7-1.5 8.7-4.5C21.7 9.3 20.3 4.5 18.5 2.7zM12.3 3.9l1.6-1.6c0.2-0.2 0.5-0.3 0.7-0.3s0.5 0.1 0.7 0.3l1.1 1.1 -3 3 -1.1-1.1C11.9 4.9 11.9 4.3 12.3 3.9zM2.3 15.3c-0.4-0.4-0.4-1 0-1.4l1.6-1.6c0.2-0.2 0.5-0.3 0.7-0.3s0.5 0.1 0.7 0.3l1.1 1.1 -3 3L2.3 15.3zM14.1 14.1c-3.1 3.1-5.6 4-7.3 4 -1.3 0-2.3-0.5-2.7-1 0 0 3-3 3-3l0.3 0.3c0.2 0.2 0.5 0.3 0.7 0.3s0.5-0.1 0.7-0.3l5.6-5.6c0.4-0.4 0.4-1 0-1.4L14.1 7.1l3-3C18.1 5.1 19.5 8.6 14.1 14.1z" fill="#030104"/></svg>
