<svg xmlns="http://www.w3.org/2000/svg" viewBox="0 0 19 19"><style>.a{fill:#030104;}</style><path d="M11 2l0.9 3.4 3.4-1 1.5 2.6 -2.5 2.4 2.5 2.5 -1.5 2.6 -3.4-1L11 17h-3l-0.9-3.4 -3.4 1 -1.5-2.6L4.8 9.5 2.3 7l1.5-2.6 3.4 1L8 2H11M11 0h-3C7.1 0 6.3 0.6 6.1 1.5L5.7 2.9l-1.4-0.4C4.1 2.5 3.9 2.5 3.8 2.5c-0.7 0-1.4 0.4-1.7 1l-1.5 2.6C0.1 6.8 0.2 7.9 0.9 8.5l1 1 -1 1c-0.7 0.6-0.8 1.6-0.3 2.4l1.5 2.6c0.4 0.6 1 1 1.7 1 0.2 0 0.4 0 0.6-0.1l1.4-0.4 0.4 1.4C6.3 18.4 7.1 19 8 19h3c0.9 0 1.7-0.6 1.9-1.5l0.4-1.4 1.4 0.4c0.2 0.1 0.4 0.1 0.6 0.1 0.7 0 1.4-0.4 1.7-1l1.5-2.6c0.5-0.8 0.3-1.8-0.3-2.4l-1-1 1-1c0.7-0.6 0.8-1.6 0.3-2.4l-1.5-2.6c-0.4-0.6-1-1-1.7-1 -0.2 0-0.4 0-0.6 0.1l-1.4 0.4 -0.4-1.4C12.7 0.6 11.9 0 11 0z" class="a"/><path d="M9.5 7.5c1.1 0 2 0.9 2 2 0 1.1-0.9 2-2 2s-2-0.9-2-2C7.5 8.4 8.4 7.5 9.5 7.5M9.5 6.5c-1.7 0-3 1.3-3 3s1.3 3 3 3 3-1.3 3-3S11.2 6.5 9.5 6.5z" class="a"/></svg>
