<svg xmlns="http://www.w3.org/2000/svg" viewBox="0 0 23 23"><style>.a{fill:#030104;}</style><path d="M11.5 13c2.8 0 5-2.2 5-5s-2.2-5-5-5 -5 2.2-5 5S8.7 13 11.5 13zM11.5 5c1.7 0 3 1.3 3 3s-1.3 3-3 3 -3-1.3-3-3S9.8 5 11.5 5z" class="a"/><path d="M19.5 14c1.4 0 2.5-1.1 2.5-2.5 0-1.4-1.1-2.5-2.5-2.5 -1.4 0-2.5 1.1-2.5 2.5C17 12.9 18.1 14 19.5 14zM19.5 10c0.8 0 1.5 0.7 1.5 1.5S20.3 13 19.5 13 18 12.3 18 11.5 18.7 10 19.5 10z" class="a"/><path d="M19.5 14.6c-1.3 0-2.3 0.4-2.9 1C15.5 14.6 13.7 14 11.5 14c-2.3 0-4 0.6-5.1 1.6C5.8 15 4.8 14.6 3.5 14.6c-2.2 0-3.5 1.1-3.5 2.2 0 0.5 1.3 1.1 3.5 1.1 0.6 0 1.1-0.1 1.6-0.1 0 0.1 0 0.2 0 0.3 0 1 2.4 2 6.4 2 3.8 0 6.4-1 6.4-2 0-0.1 0-0.2 0-0.3 0.5 0.1 1 0.1 1.6 0.1 2.1 0 3.5-0.5 3.5-1.1C23 15.7 21.6 14.6 19.5 14.6zM3.5 16.9c-1.3 0-2.1-0.2-2.4-0.4 0.2-0.4 1-0.9 2.4-0.9 1.1 0 1.8 0.4 2.2 0.7 -0.1 0.1-0.2 0.2-0.2 0.3C5 16.8 4.4 16.9 3.5 16.9zM11.5 18c-2.2 0-3.5-0.3-4.2-0.6C7.8 16.8 9.2 16 11.5 16c2.2 0 3.6 0.8 4.1 1.4C14.9 17.7 13.5 18 11.5 18zM19.5 16.9c-0.9 0-1.5-0.1-2-0.2 -0.1-0.1-0.2-0.3-0.2-0.4 0.4-0.3 1.1-0.7 2.2-0.7 1.3 0 2.1 0.5 2.4 0.9C21.5 16.7 20.7 16.9 19.5 16.9z" class="a"/><path d="M3.5 14C4.9 14 6 12.9 6 11.5 6 10.1 4.9 9 3.5 9 2.1 9 1 10.1 1 11.5 1 12.9 2.1 14 3.5 14zM3.5 10C4.3 10 5 10.7 5 11.5S4.3 13 3.5 13 2 12.3 2 11.5 2.7 10 3.5 10z" class="a"/></svg>
