<?xml version="1.0" encoding="UTF-8" standalone="no"?>
<svg
   xmlns:dc="http://purl.org/dc/elements/1.1/"
   xmlns:cc="http://creativecommons.org/ns#"
   xmlns:rdf="http://www.w3.org/1999/02/22-rdf-syntax-ns#"
   xmlns:svg="http://www.w3.org/2000/svg"
   xmlns="http://www.w3.org/2000/svg"
   viewBox="0 0 172 50.666668"
   height="50.666668"
   width="172"
   xml:space="preserve"
   id="svg2"
   version="1.1"><metadata
     id="metadata8"><rdf:RDF><cc:Work
         rdf:about=""><dc:format>image/svg+xml</dc:format><dc:type
           rdf:resource="http://purl.org/dc/dcmitype/StillImage" /></cc:Work></rdf:RDF></metadata><defs
     id="defs6"><clipPath
       id="clipPath18"
       clipPathUnits="userSpaceOnUse"><path
         id="path16"
         d="M 0,38 H 129 V 0 H 0 Z" /></clipPath></defs><g
     transform="matrix(1.3333333,0,0,-1.3333333,0,50.666667)"
     id="g10"><g
       id="g12"><g
         clip-path="url(#clipPath18)"
         id="g14"><g
           transform="translate(3.4,24.6)"
           id="g20"><path
             id="path22"
             style="fill:#6cb33f;fill-opacity:1;fill-rule:nonzero;stroke:none"
             d="m 0,0 h 7.1 v -3 h 0.1 c 1.4,2.4 3.4,3.7 6.4,3.7 2.7,0 4.7,-1.3 5.7,-3.5 h 0.1 c 1.7,2.7 4,3.5 6.6,3.5 5,0 7.1,-3.5 7.1,-8.1 v -12.7 h -7.5 v 11.3 c 0,2.1 -0.7,3.4 -2.6,3.4 -1.9,0 -2.8,-1.7 -2.8,-3.8 v -10.9 h -7.5 v 11.3 c 0,2.1 -0.7,3.4 -2.6,3.4 -1.9,0 -2.8,-1.7 -2.8,-3.8 V -20.1 H -0.2 V 0 Z" /></g><path
           id="path24"
           style="fill:#6cb33f;fill-opacity:1;fill-rule:nonzero;stroke:none"
           d="m 71.7,24.6 h 7.5 V 4.4 h -7.5 z" /><g
           transform="translate(96.9,14.7)"
           id="g26"><path
             id="path28"
             style="fill:#6cb33f;fill-opacity:1;fill-rule:nonzero;stroke:none"
             d="m 0,0 c 0,3.2 -1.2,5.2 -3.5,5.2 -2.3,0 -3.8,-2.3 -3.8,-5.2 0,-3 1.5,-5.2 3.8,-5.2 2.3,0 3.5,2 3.5,5.2 m -7.3,-7.6 v 0 l -0.1,-2.6 h -7.1 V 16.7 H -7 V 7.9 h 0.1 c 1.4,1.8 3.2,2.7 5.9,2.7 5.4,0 8.6,-4.8 8.6,-10.7 0,-6.9 -3.3,-10.8 -8.6,-10.8 -2.5,0 -4.9,1 -6.3,3.3" /></g><g
           transform="translate(118.3,11.8)"
           id="g30"><path
             id="path32"
             style="fill:#6cb33f;fill-opacity:1;fill-rule:nonzero;stroke:none"
             d="m 0,0 v 1.8 c -0.7,-0.4 -1.6,-0.7 -2.9,-1 -2.2,-0.5 -2.9,-1.1 -2.9,-2.3 0,-1.3 1.1,-1.9 2.3,-1.9 1.8,0 3.5,0.9 3.5,3.4 m -0.1,-5.1 v 0 c -1.4,-1.9 -3.6,-2.7 -6.2,-2.7 -3.9,0 -6.7,2.1 -6.7,6.1 0,4.5 3.4,5.8 7.3,6.2 4.3,0.5 5.4,1 5.4,2.3 0,1.1 -0.5,1.9 -2.1,1.9 -1.6,0 -2.5,-1 -2.7,-2.4 h -7.1 c 0.2,4 3.2,7.3 9.6,7.3 3.1,0 5.1,-0.4 6.6,-1.3 C 6.1,11 7.1,8.9 7.1,6.2 V -3.9 c 0,-1.7 0.1,-2.6 0.8,-3 V -7.2 H 0.5 c -0.2,0.3 -0.4,0.9 -0.6,2.1" /></g><g
           transform="translate(75.4,34.7)"
           id="g34"><path
             id="path36"
             style="fill:#6cb33f;fill-opacity:1;fill-rule:nonzero;stroke:none"
             d="m 0,0 c 2.264,0 4.1,-1.836 4.1,-4.1 0,-2.264 -1.836,-4.1 -4.1,-4.1 -2.264,0 -4.1,1.836 -4.1,4.1 0,2.264 1.836,4.1 4.1,4.1" /></g><g
           transform="translate(37.1,11.4)"
           id="g38"><path
             id="path40"
             style="fill:#8b0304;fill-opacity:1;fill-rule:nonzero;stroke:none"
             d="M 0,0 C 2.4,-1.2 5.3,1.7 5.3,1.7 6.7,-2.1 9,0.3 9,0.3 9,0.3 7,-2 1.9,-0.8 l -0.2,0.1 -0.2,0.1 -1.1,0.5 z" /></g><g
           transform="translate(48.2,15)"
           id="g42"><path
             id="path44"
             style="fill:#d71621;fill-opacity:1;fill-rule:nonzero;stroke:none"
             d="m 0,0 c 0,0 -5.2,-6.8 -11.1,-3.5 0,0 10.8,-5.9 16.3,-0.4 z" /></g><g
           transform="translate(67.9,11.7)"
           id="g46"><path
             id="path48"
             style="fill:#d71621;fill-opacity:1;fill-rule:nonzero;stroke:none"
             d="M 0,0 C -0.9,-0.5 -2.2,-1.2 -3.3,-1.2 -4.9,-1.2 -6,-0.5 -6,1.7 V 6.3 H 0.5 V 13 H -6 v 6.8 h -7.3 V 13 h -6.5 V 6.3 h 6.5 V 0.6 c 0,-5 2.4,-8.6 8.2,-8.6 3.6,0 5.6,0.9 7.7,2.4 z" /></g></g></g></g></svg>